<svg xmlns="http://www.w3.org/2000/svg" width="408.533" height="438.842" viewBox="0 0 408.533 438.842">
  <g id="Grupo_5064" data-name="Grupo 5064" transform="translate(-791.113 -36.494)">
    <ellipse id="Elipse_687" data-name="Elipse 687" cx="168.799" cy="163.791" rx="168.799" ry="163.791" transform="translate(839.591 81.703)" fill="#f9f2ea"/>
    <g id="Grupo_5031" data-name="Grupo 5031">
      <path id="Trazado_11268" data-name="Trazado 11268" d="M838.61,314.045c-2.67-6.6-5.386-6.886-6.542-13.105-.993-5.344.722-6.7-.467-12.048-.183-.821-2.707-11.667-8.412-12.26-4.342-.451-8.9,5.206-10.748,9.512-2.217,5.168-.133,7.464-2.337,15.641-1.027,3.812-1.573,3.659-3.037,8.033-1.715,5.122-4,11.949-2.8,18.812,1.176,6.746,5.424,11.846,9.089,15.151a8.272,8.272,0,0,0,5.3,2.053l8.9.251a8.257,8.257,0,0,0,5.75-2.018,24.2,24.2,0,0,0,5.073-6.349C844.009,327.395,839.461,316.149,838.61,314.045Z" fill="#48a070"/>
      <g id="Grupo_5030" data-name="Grupo 5030">
        <path id="Trazado_11269" data-name="Trazado 11269" d="M822.446,346.6a.488.488,0,0,1-.053,0,.379.379,0,0,1-.322-.428c.879-6.261.689-13.26,0-24.789-.671-11.177-.007-39.932,0-40.222a.379.379,0,0,1,.758.018c-.007.289-.67,29.013,0,40.158.7,11.579.885,18.616,0,24.94A.38.38,0,0,1,822.446,346.6Z" fill="#84bfa1"/>
        <path id="Trazado_11270" data-name="Trazado 11270" d="M823,339.593a.377.377,0,0,1-.3-.151l-9.852-13.1a.379.379,0,0,1,.6-.456l9.852,13.1a.379.379,0,0,1-.075.531A.372.372,0,0,1,823,339.593Z" fill="#84bfa1"/>
        <path id="Trazado_11271" data-name="Trazado 11271" d="M822.161,310.74a.376.376,0,0,1-.291-.136l-8.3-9.934a.379.379,0,1,1,.581-.486l8.3,9.935a.378.378,0,0,1-.048.533A.373.373,0,0,1,822.161,310.74Z" fill="#84bfa1"/>
        <path id="Trazado_11272" data-name="Trazado 11272" d="M822.227,316.678a.379.379,0,0,1-.29-.621l8.3-9.935a.378.378,0,1,1,.581.485l-8.3,9.935A.376.376,0,0,1,822.227,316.678Z" fill="#84bfa1"/>
        <path id="Trazado_11273" data-name="Trazado 11273" d="M822.227,300.049a.379.379,0,0,1-.29-.621l6.262-9.779a.378.378,0,0,1,.581.485l-6.262,9.779A.38.38,0,0,1,822.227,300.049Z" fill="#84bfa1"/>
      </g>
    </g>
    <g id="Grupo_5032" data-name="Grupo 5032">
      <path id="Trazado_11274" data-name="Trazado 11274" d="M827.995,340.171c10.515,5.389,14.548,20.525,7.792,29.067-5.991,7.576-19.491,7.39-27.628,1.942-5.208-3.487-9.445-9.943-9.924-16.4-.254-3.423.713-4.621.019-9.279a42.427,42.427,0,0,0-3.475-11c-2.416-5.418-4.058-6.785-3.585-9.679,0,0,.75-4.071,6.672-3.561s9.913,8.3,11.827,10.079C816.35,337.525,821.774,336.983,827.995,340.171Z" fill="#84bfa1"/>
      <path id="Trazado_11275" data-name="Trazado 11275" d="M803.819,343.213a47.548,47.548,0,0,1,9.992,5.7,167.594,167.594,0,0,0-12.73-17.117.333.333,0,1,1,.5-.443c.056.062,2.4,2.714,5.991,7.517a76.406,76.406,0,0,0-.839-8.366.333.333,0,0,1,.262-.39h0a.333.333,0,0,1,.39.264,84.787,84.787,0,0,1,.9,9.456c2.081,2.821,4.526,6.3,7.16,10.36a.3.3,0,0,1,.062.094c1.432,2.21,2.918,4.591,4.432,7.133.737-4.943-.012-13.087-.02-13.174a.333.333,0,0,1,.663-.062c.035.376.847,9.209-.119,14.116,2.242,3.8,4.535,7.948,6.789,12.4a.333.333,0,0,1-.146.448.348.348,0,0,1-.086.029.334.334,0,0,1-.362-.176,220.5,220.5,0,0,0-11.732-20.391,47.586,47.586,0,0,0-11.356-6.781.333.333,0,0,1,.249-.618Z" fill="#45836a"/>
    </g>
    <path id="Trazado_11276" data-name="Trazado 11276" d="M941.2,274.421h0l-.241-1.2c-.962-1.821-10.527-19.186-31.331-22.249-21.939-3.231-36.549,12.363-37.687,13.622-3.29.3-16.64,1.871-26.791,13.168C831.3,293.177,835.617,313.09,836.065,315a46.14,46.14,0,0,0-15.438,17.708c-8.154,16.687-3.044,32.766-1.816,36.326-6.675-.252-10.89,1.538-13.623,3.632-14.074,10.788-11.863,47.3,8.628,61.3,10.516,7.182,22.753,6.321,28.606,5.448H974.457l-.193-.956h20.387V327.876A53.455,53.455,0,0,0,941.2,274.421Z" fill="#5aa880"/>
    <path id="Trazado_11277" data-name="Trazado 11277" d="M962.591,338.394c-.586-1.11-6.413-11.689-19.087-13.555-13.366-1.968-22.266,7.532-22.96,8.3a25.311,25.311,0,0,0-16.321,8.022c-8.436,9.388-5.8,21.52-5.532,22.683a28.11,28.11,0,0,0-9.4,10.788c-4.968,10.166-1.855,19.962-1.107,22.13-4.066-.153-6.634.937-8.3,2.213-8.574,6.572-7.227,28.818,5.256,37.344,6.407,4.376,13.862,3.852,17.428,3.32H983Z" fill="#45836a"/>
    <g id="Grupo_5033" data-name="Grupo 5033">
      <circle id="Elipse_688" data-name="Elipse 688" cx="10.104" cy="10.104" r="10.104" transform="matrix(0.221, -0.975, 0.975, 0.221, 893.471, 325.438)" fill="#e25740"/>
      <path id="Trazado_11278" data-name="Trazado 11278" d="M900.911,311.723a5.409,5.409,0,0,0-1.1,1.73,7.1,7.1,0,0,0-.477,1.9,4.686,4.686,0,0,0,.032.976,5.093,5.093,0,0,1,0,.964,8.265,8.265,0,0,1-.155,1.013,4.7,4.7,0,0,1-.3,1.121l-.167.042a3.8,3.8,0,0,1-1.094-2.092,4.687,4.687,0,0,1,.346-2.317,6.532,6.532,0,0,1,1.085-2.057,5.131,5.131,0,0,1,1.743-1.43Z" fill="#ea725e"/>
    </g>
    <g id="Grupo_5034" data-name="Grupo 5034">
      <path id="Trazado_11279" data-name="Trazado 11279" d="M834.461,393.395a10.1,10.1,0,1,1-12.58-6.776A10.1,10.1,0,0,1,834.461,393.395Z" fill="#e25740"/>
      <path id="Trazado_11280" data-name="Trazado 11280" d="M820.134,390.2a5.392,5.392,0,0,0-1.1,1.73,7.1,7.1,0,0,0-.477,1.906,4.676,4.676,0,0,0,.032.975,5.088,5.088,0,0,1,0,.964,8.264,8.264,0,0,1-.155,1.013,4.7,4.7,0,0,1-.3,1.121l-.167.042a3.8,3.8,0,0,1-1.094-2.092,4.679,4.679,0,0,1,.346-2.317,6.532,6.532,0,0,1,1.085-2.057,5.123,5.123,0,0,1,1.743-1.43Z" fill="#ea725e"/>
    </g>
    <g id="Grupo_5035" data-name="Grupo 5035">
      <circle id="Elipse_689" data-name="Elipse 689" cx="10.104" cy="10.104" r="10.104" transform="matrix(0.477, -0.879, 0.879, 0.477, 910.581, 355.432)" fill="#e25740"/>
      <path id="Trazado_11281" data-name="Trazado 11281" d="M919.631,345.274a5.393,5.393,0,0,0-1.1,1.729,7.105,7.105,0,0,0-.477,1.906,4.682,4.682,0,0,0,.032.976,5.077,5.077,0,0,1,0,.963,8.205,8.205,0,0,1-.155,1.013,4.715,4.715,0,0,1-.3,1.122l-.167.041a3.8,3.8,0,0,1-1.094-2.091,4.687,4.687,0,0,1,.346-2.317,6.523,6.523,0,0,1,1.085-2.057,5.147,5.147,0,0,1,1.743-1.431Z" fill="#ea725e"/>
    </g>
    <g id="Grupo_5036" data-name="Grupo 5036">
      <path id="Trazado_11282" data-name="Trazado 11282" d="M874.7,299.76a10.1,10.1,0,1,1-12.58-6.776A10.1,10.1,0,0,1,874.7,299.76Z" fill="#e25740"/>
      <path id="Trazado_11283" data-name="Trazado 11283" d="M860.374,296.564a5.373,5.373,0,0,0-1.1,1.73,7.069,7.069,0,0,0-.477,1.906,4.755,4.755,0,0,0,.031.976,4.922,4.922,0,0,1,0,.963,8.054,8.054,0,0,1-.155,1.013,4.669,4.669,0,0,1-.3,1.122l-.167.041a3.793,3.793,0,0,1-1.093-2.092,4.673,4.673,0,0,1,.345-2.316,6.525,6.525,0,0,1,1.086-2.057,5.122,5.122,0,0,1,1.742-1.431Z" fill="#ea725e"/>
    </g>
    <g id="Grupo_5037" data-name="Grupo 5037">
      <path id="Trazado_11284" data-name="Trazado 11284" d="M912.978,278.748a10.1,10.1,0,1,1-12.581-6.776A10.1,10.1,0,0,1,912.978,278.748Z" fill="#cc4b2e"/>
      <path id="Trazado_11285" data-name="Trazado 11285" d="M898.651,275.553a5.377,5.377,0,0,0-1.1,1.729,7.11,7.11,0,0,0-.477,1.906,4.69,4.69,0,0,0,.032.976,5.078,5.078,0,0,1,0,.963,8.2,8.2,0,0,1-.155,1.013,4.72,4.72,0,0,1-.3,1.122l-.166.041a3.79,3.79,0,0,1-1.094-2.091,4.676,4.676,0,0,1,.346-2.317,6.522,6.522,0,0,1,1.085-2.057,5.142,5.142,0,0,1,1.742-1.431Z" fill="#ea725e"/>
    </g>
    <g id="Grupo_5038" data-name="Grupo 5038">
      <path id="Trazado_11286" data-name="Trazado 11286" d="M861.368,348.469a10.1,10.1,0,1,1-12.58-6.776A10.1,10.1,0,0,1,861.368,348.469Z" fill="#cc4b2e"/>
      <path id="Trazado_11287" data-name="Trazado 11287" d="M847.041,345.274a5.394,5.394,0,0,0-1.1,1.729,7.108,7.108,0,0,0-.477,1.906,4.686,4.686,0,0,0,.032.976,4.921,4.921,0,0,1,0,.963,8.206,8.206,0,0,1-.155,1.013,4.715,4.715,0,0,1-.3,1.122l-.167.041a3.8,3.8,0,0,1-1.094-2.091,4.687,4.687,0,0,1,.346-2.317,6.523,6.523,0,0,1,1.085-2.057,5.146,5.146,0,0,1,1.743-1.431Z" fill="#ea725e"/>
    </g>
    <g id="Grupo_5039" data-name="Grupo 5039">
      <path id="Trazado_11288" data-name="Trazado 11288" d="M963.745,379.364a10.1,10.1,0,1,1-12.58-6.776A10.1,10.1,0,0,1,963.745,379.364Z" fill="#cc4b2e"/>
      <path id="Trazado_11289" data-name="Trazado 11289" d="M949.419,376.168a5.4,5.4,0,0,0-1.1,1.73,7.1,7.1,0,0,0-.477,1.906,4.678,4.678,0,0,0,.032.975,4.927,4.927,0,0,1,0,.964,8.265,8.265,0,0,1-.155,1.013,4.7,4.7,0,0,1-.3,1.121l-.167.042a3.8,3.8,0,0,1-1.094-2.092,4.689,4.689,0,0,1,.346-2.317,6.533,6.533,0,0,1,1.085-2.057,5.131,5.131,0,0,1,1.743-1.43Z" fill="#ea725e"/>
    </g>
    <g id="Grupo_5040" data-name="Grupo 5040">
      <path id="Trazado_11290" data-name="Trazado 11290" d="M869.176,338.789a10.1,10.1,0,1,1-7.431-12.2A10.1,10.1,0,0,1,869.176,338.789Z" fill="#e25740"/>
      <path id="Trazado_11291" data-name="Trazado 11291" d="M858.429,328.791a5.4,5.4,0,0,0-1.822.938,7.13,7.13,0,0,0-1.375,1.4,4.742,4.742,0,0,0-.465.858,5.019,5.019,0,0,1-.491.83,8.359,8.359,0,0,1-.646.8,4.667,4.667,0,0,1-.827.814l-.165-.048a3.8,3.8,0,0,1,.113-2.358,4.685,4.685,0,0,1,1.47-1.824,6.524,6.524,0,0,1,1.976-1.227,5.141,5.141,0,0,1,2.226-.353Z" fill="#ea725e"/>
    </g>
    <g id="Grupo_5042" data-name="Grupo 5042">
      <path id="Trazado_11292" data-name="Trazado 11292" d="M1183.837,380.505c9.58-2.969,11.144-21.435,11.65-27.409.862-10.175-1.664-9.757-.42-19.6s4.167-13.356,4.494-24.076c.181-5.906.36-11.764-2.762-13.511-4.925-2.755-14.754,6.579-15.868,7.636-11.939,11.337-14.506,26.516-16.349,38.367-2.147,13.812-3.688,23.725,2.637,31.411C1170.982,377.9,1178.038,382.3,1183.837,380.505Z" fill="#84bfa1"/>
      <g id="Grupo_5041" data-name="Grupo 5041">
        <path id="Trazado_11293" data-name="Trazado 11293" d="M1174.2,375.035a.431.431,0,0,1-.362-.476c4.785-40.33,19.764-75.646,19.915-76a.43.43,0,1,1,.79.339c-.15.35-15.081,35.557-19.85,75.761a.431.431,0,0,1-.478.376Z" fill="#48a070"/>
        <path id="Trazado_11294" data-name="Trazado 11294" d="M1185.953,321.837l-.029-.006a.43.43,0,0,1-.319-.3c-1.938-6.72-3.854-16.842-3.874-16.943a.43.43,0,1,1,.845-.16c.019.1,1.793,9.466,3.646,16.125a51.8,51.8,0,0,1,11.6-9.4.43.43,0,0,1,.411.755c-6.228,3.393-11.839,9.728-11.9,9.791A.429.429,0,0,1,1185.953,321.837Z" fill="#48a070"/>
        <path id="Trazado_11295" data-name="Trazado 11295" d="M1183.043,331.612a.377.377,0,0,1-.046-.009.433.433,0,0,1-.263-.2c-3.889-6.821-7.268-17.2-7.3-17.3a.431.431,0,1,1,.819-.266,114.456,114.456,0,0,0,7.016,16.764l12.715-7.49a.43.43,0,1,1,.437.741l-13.093,7.713A.426.426,0,0,1,1183.043,331.612Z" fill="#48a070"/>
        <path id="Trazado_11296" data-name="Trazado 11296" d="M1180.444,341.435a.433.433,0,0,1-.272-.157c-3.219-4.043-8.377-17.7-8.595-18.279a.43.43,0,0,1,.8-.3c.052.138,5.09,13.479,8.246,17.761,1.611-.865,8.6-4.546,12.093-5.144a.43.43,0,1,1,.146.848c-3.739.64-12.067,5.181-12.15,5.227A.436.436,0,0,1,1180.444,341.435Z" fill="#48a070"/>
      </g>
    </g>
    <g id="Grupo_5044" data-name="Grupo 5044">
      <path id="Trazado_11297" data-name="Trazado 11297" d="M1181.121,364.279c8.27-5.674,4.293-23.775,3.007-29.631-2.191-9.973-4.48-8.826-6.207-18.59s.024-13.991-2.839-24.327c-1.577-5.694-3.142-11.343-6.641-12.086-5.52-1.173-12.143,10.654-12.893,11.994-8.045,14.365-6,29.623-4.249,41.488,2.041,13.828,3.506,23.753,11.824,29.22C1168.071,365.6,1176.115,367.714,1181.121,364.279Z" fill="#48a070"/>
      <g id="Grupo_5043" data-name="Grupo 5043">
        <path id="Trazado_11298" data-name="Trazado 11298" d="M1170.3,361.907a.431.431,0,0,1-.487-.347c-7.377-39.937-3.534-78.105-3.494-78.486a.43.43,0,0,1,.856.089c-.04.38-3.871,38.43,3.484,78.241a.43.43,0,0,1-.345.5Z" fill="#2d724a"/>
        <path id="Trazado_11299" data-name="Trazado 11299" d="M1165.762,307.617l-.03,0a.43.43,0,0,1-.394-.192c-3.842-5.844-8.671-14.944-8.719-15.035a.43.43,0,0,1,.76-.4c.046.088,4.516,8.51,8.259,14.321a51.789,51.789,0,0,1,8.3-12.419.43.43,0,0,1,.616.6c-4.943,5.086-8.426,12.8-8.461,12.876A.429.429,0,0,1,1165.762,307.617Z" fill="#2d724a"/>
        <path id="Trazado_11300" data-name="Trazado 11300" d="M1165.878,317.816a.36.36,0,0,1-.047,0,.432.432,0,0,1-.311-.115c-5.735-5.363-12.037-14.276-12.1-14.365a.431.431,0,0,1,.7-.5,114.394,114.394,0,0,0,11.668,13.933l9.924-10.921a.43.43,0,0,1,.637.579l-10.22,11.245A.431.431,0,0,1,1165.878,317.816Z" fill="#2d724a"/>
        <path id="Trazado_11301" data-name="Trazado 11301" d="M1166.306,327.968a.432.432,0,0,1-.306-.07c-4.273-2.908-13.246-14.423-13.625-14.911a.43.43,0,1,1,.678-.528c.09.116,8.855,11.365,13.138,14.52,1.282-1.3,6.867-6.889,10.026-8.5a.43.43,0,1,1,.39.767c-3.381,1.719-9.99,8.523-10.056,8.592A.44.44,0,0,1,1166.306,327.968Z" fill="#2d724a"/>
      </g>
    </g>
    <path id="Trazado_11302" data-name="Trazado 11302" d="M1065.946,93.214c-3,6.664-18.981,5.969-35.7-1.552s-27.841-19.02-24.843-25.684,18.981-5.969,35.7,1.552S1068.944,86.55,1065.946,93.214Z" fill="#774615"/>
    <ellipse id="Elipse_690" data-name="Elipse 690" cx="28.181" cy="76.881" rx="28.181" ry="76.881" transform="translate(943.494 87.893) rotate(-65.779)" fill="#9d6729"/>
    <path id="Trazado_11303" data-name="Trazado 11303" d="M985.778,121.873c-1.488-1.026-11.522-8.179-12.066-20.057-.6-13.063,10.712-22.48,19.587-25.853,8.4-3.194,15.862-1.439,23.5.47,7.307,1.825,31.946,7.98,39.8,26.794,5.733,13.733-2.675,21.762,5.641,39.329,1.67,3.526,4.09,6.79,8.932,13.318,15.634,21.082,22.961,24.009,27.577,33.375,3.89,7.893,6.03,20.714-2.82,41.993,1.522,2.053,5.409,7.894,4.544,15.2-1.325,11.179-15.349,16.886-23.5,20.213-21.33,8.7-76.653,21.521-97.3-10.5-11.659-18.075-6.045-40.792-3.291-49.671-8.433-8.52-9.673-15.046-9.4-19.273.426-6.621,4.618-8.443,12.692-22.563,4.759-8.323,7.594-13.379,8.774-20.213A42.172,42.172,0,0,0,985.778,121.873Z" fill="#351008"/>
    <path id="Trazado_11304" data-name="Trazado 11304" d="M974.125,251.107H950.34c.508-1.265,1.041-2.6,1.6-3.982l.008-.008c5.538-13.69,13.509-32.625,19.443-43.6l.025-.034a53.222,53.222,0,0,1,4.059-6.6,7.119,7.119,0,0,1,1.385-1.342v-.008a17.222,17.222,0,0,1,1.96-1.281c.232-.138.482-.276.74-.413.008,0,.017-.009.026-.009.258-.137.533-.275.816-.413s.568-.275.86-.412.6-.276.912-.4q.774-.348,1.6-.67c.258-.1.516-.207.783-.31.18-.077.37-.146.567-.215.207-.086.422-.163.637-.241.412-.154.825-.309,1.255-.455,1.505-.542,3.07-1.058,4.652-1.565,2.253-.714,4.541-1.4,6.725-2.047-5.2,10.345-17.405,34.887-22.186,46.6A34.555,34.555,0,0,0,974.125,251.107Z" fill="#f2e7d6"/>
    <path id="Trazado_11305" data-name="Trazado 11305" d="M950.462,264.4a.97.97,0,0,1-1.859,0c-3.342-11.091-13.785-49.3.93-49.3S953.8,253.3,950.462,264.4Z" fill="#84bfa1"/>
    <path id="Trazado_11306" data-name="Trazado 11306" d="M952.233,257.07a.971.971,0,0,1-1.761-.6c.415-11.577,2.854-51.112,16.782-46.367S958.973,247.648,952.233,257.07Z" fill="#5aa880"/>
    <path id="Trazado_11307" data-name="Trazado 11307" d="M952.407,262.126a.97.97,0,0,0,1.639-.878c-2.291-11.356-11.125-49.969-24.1-43.022S944.224,253.926,952.407,262.126Z" fill="#45836a"/>
    <path id="Trazado_11308" data-name="Trazado 11308" d="M962.293,271.275a.971.971,0,0,0,1.86,0c3.341-11.092,13.784-49.3-.93-49.3S958.951,260.183,962.293,271.275Z" fill="#84bfa1"/>
    <path id="Trazado_11309" data-name="Trazado 11309" d="M959.81,274.011a.971.971,0,0,0,1.761-.6c-.415-11.576-2.854-51.112-16.782-46.366S953.07,264.59,959.81,274.011Z" fill="#5aa880"/>
    <path id="Trazado_11310" data-name="Trazado 11310" d="M968.531,263.913a.97.97,0,0,1-1.815-.4c-.859-11.552-2.772-51.117,11.592-47.928S974.2,253.809,968.531,263.913Z" fill="#45836a"/>
    <path id="Trazado_11311" data-name="Trazado 11311" d="M1074.184,441.025H961.33L959.2,428.952a204.174,204.174,0,0,1-2.648-21.687c-1.8-26.837-1.677-62.334,5.279-79.094,8.109-19.545,18.807-22.125,18.807-41.12s-2.95-23.416-2.95-23.416-7.619-14.876-1.479-29.942c4.781-11.711,16.983-36.253,22.186-46.6,2.089-.61,4.084-1.2,5.864-1.737l-9.229,32.606a1.164,1.164,0,0,0,1.12,1.481h38.621a1.164,1.164,0,0,0,1.121-.851l10.185-36.409,5.572,2.528-4.258,26.076a167.544,167.544,0,0,0-2.19,24.6,412.175,412.175,0,0,0,1.632,44.8,23.413,23.413,0,0,0,6.4,14.206,29.477,29.477,0,0,0,5.409,15.083c.275.387.567.773.868,1.152,7.533,9.519,9.124,15.47,13.286,56.521A443.367,443.367,0,0,1,1074.184,441.025Z" fill="#ffb552"/>
    <path id="Trazado_11312" data-name="Trazado 11312" d="M1046.013,182.159l.061.026-10.182,36.408a1.168,1.168,0,0,1-1.126.852H996.147a1.16,1.16,0,0,1-1.118-1.479l9.227-32.608c3.964-1.2,6.905-2.236,7.542-3.044.86-1.075,1.049-4.067.963-7.318-.095-3.379-.49-7.034-.748-9.089a1.846,1.846,0,0,0-1.815-1.634,41.389,41.389,0,0,1-4.463-.284h-.025a35.525,35.525,0,0,1-10.689-2.88c-4.394-2.047-7.542-10.947-9.261-22.091-.456-2.958-.809-6.08-1.058-9.27a144.453,144.453,0,0,1-.3-17.568c.026-.662.06-1.316.1-1.969.017-.232.026-.464.052-.7a43.892,43.892,0,0,1,5.417-19c-.137,5.7,1.41,15.161,11.231,23.278,0,0-1.952-15.022,1.031-24.086,0,0,7.568,16.863,22.711,20.818,0,0,2.02,6.2,11.161,10.526l.009-.009c.275-.309,7.257-8.057,11.884,1.195,3.972,7.937-3.964,16.382-10.3,17.886a57.558,57.558,0,0,0,1.969,33.434l1.342,3.353A9.687,9.687,0,0,0,1046.013,182.159Z" fill="#f08f64"/>
    <path id="Trazado_11313" data-name="Trazado 11313" d="M1087.753,243.23l-22.392,6.621c-2.657,8.805-6.621,21.506-10.25,31.326a31.476,31.476,0,0,0-1.883,13.226,23.413,23.413,0,0,1-6.4-14.206c-2.846-28.652-1.221-58.516-1.221-58.516l6.037-36.968,16.983,7.722s6.461,3.436,12.3,19.038a204.125,204.125,0,0,1,8.436,29A2.316,2.316,0,0,1,1087.753,243.23Z" fill="#f2e7d6"/>
    <path id="Trazado_11314" data-name="Trazado 11314" d="M989.86,225.47a2.8,2.8,0,1,1-2.8-2.8A2.8,2.8,0,0,1,989.86,225.47Z" fill="#e29437"/>
    <path id="Trazado_11315" data-name="Trazado 11315" d="M1041.274,225.47a2.8,2.8,0,1,1-2.8-2.8A2.8,2.8,0,0,1,1041.274,225.47Z" fill="#e29437"/>
    <path id="Trazado_11316" data-name="Trazado 11316" d="M1005.205,255.947h0c-11.044,0-18.531-8.954-16.722-20l.05-.3a3.354,3.354,0,0,1,3.187-2.739h34.518a2.265,2.265,0,0,1,2.29,2.739l-.049.3C1026.67,246.993,1016.25,255.947,1005.205,255.947Z" fill="#e29437"/>
    <path id="Trazado_11317" data-name="Trazado 11317" d="M1052.085,287.911h-70.59a.86.86,0,0,1,0-1.72h70.59a.86.86,0,0,1,0,1.72Z" fill="#e29437"/>
    <path id="Trazado_11318" data-name="Trazado 11318" d="M966.767,441.885a.861.861,0,0,1-.857-.793c-.031-.391-3.1-39.488-3.929-69.178-.812-28.974,3.454-42.323,11.61-56.823,7.3-12.978,7.049-18.9,7.045-18.961a.864.864,0,0,1,.859-.915h70.59a.86.86,0,0,1,0,1.72H982.331c-.162,2.177-1.2,8.256-7.241,19-8.005,14.23-12.191,27.358-11.39,55.931.832,29.646,3.894,68.7,3.925,69.093a.861.861,0,0,1-.79.925Z" fill="#e29437"/>
    <path id="Trazado_11319" data-name="Trazado 11319" d="M1001.833,350.493a.869.869,0,0,1-.427-.113l-6.719-3.84a15.76,15.76,0,0,1-7.923-13.654V299.509a.859.859,0,1,1,1.719,0v33.377a14.036,14.036,0,0,0,7.057,12.161l5.433,3.105V299.509a.86.86,0,1,1,1.72,0v50.124a.859.859,0,0,1-.86.86Z" fill="#e29437"/>
    <path id="Trazado_11320" data-name="Trazado 11320" d="M1048.945,441.885a.861.861,0,0,1-.858-.8c-.013-.209-1.4-21.133-1.4-39.461,0-17.841-2.187-69.239-6.241-83.631-4.033-14.325-2.871-21.747-2.819-22.056a.86.86,0,0,1,1.7.28c-.012.073-1.136,7.408,2.779,21.309,4.095,14.542,6.3,66.188,6.3,84.1,0,18.269,1.383,39.138,1.4,39.347a.86.86,0,0,1-.8.915Z" fill="#e29437"/>
    <path id="Trazado_11321" data-name="Trazado 11321" d="M1007.415,438.943a.86.86,0,0,1-.86-.839l-1.362-59.137a122.976,122.976,0,0,0-4.191-29.11.86.86,0,0,1,1.661-.447,124.777,124.777,0,0,1,4.25,29.517l1.362,59.136a.86.86,0,0,1-.84.88Z" fill="#e29437"/>
    <path id="Trazado_11322" data-name="Trazado 11322" d="M980.635,287.051c0,16.364-7.946,20.543-15.332,33.9a33.079,33.079,0,0,1-30.8-33V254.159a3.053,3.053,0,0,1,3.052-3.052h36.572c.112.92.25,1.805.413,2.648s.335,1.651.524,2.408q.207.851.439,1.625c.077.292.163.576.249.843.061.2.121.387.181.567s.12.37.181.542c.12.353.24.679.352.989a28.686,28.686,0,0,0,1.221,2.906S980.635,268.055,980.635,287.051Z" fill="#a06926"/>
    <path id="Trazado_11323" data-name="Trazado 11323" d="M944.626,293.791a24.18,24.18,0,0,0-3.706-5.421c-2-2.181-4.808-4.394-7.519-3.672-3.5.933-2.106,6.074-.951,9.087a32.106,32.106,0,0,1,1.307,4.481c.58,2.586,2.056,6.39,5.694,5.945,5.458-.667,8.3-4.276,6.292-8.225Z" fill="#f08f64"/>
    <path id="Trazado_11324" data-name="Trazado 11324" d="M959.471,317.568a.426.426,0,0,1-.242-.075C948.734,310.348,948.7,294.559,948.7,294.4V253.755a.43.43,0,1,1,.86,0V294.4c0,.156.039,15.494,10.152,22.38a.43.43,0,0,1-.242.785Z" fill="#c9a875"/>
    <path id="Trazado_11325" data-name="Trazado 11325" d="M953.281,264.667a.858.858,0,1,1,1.47-.885,7.064,7.064,0,0,0,11.661.653,1.023,1.023,0,1,1,2.021.009,7.044,7.044,0,0,0,10.06,1.161c.147.49.31,1.074.473,1.788a8.759,8.759,0,0,1-11.548-1.47,8.782,8.782,0,0,1-14.137-1.256Z" fill="#222221"/>
    <path id="Trazado_11326" data-name="Trazado 11326" d="M978.966,267.393a8.759,8.759,0,0,1-11.548-1.47,8.782,8.782,0,0,1-14.137-1.256.858.858,0,1,1,1.47-.885,7.064,7.064,0,0,0,11.661.653,1.023,1.023,0,1,1,2.021.009,7.044,7.044,0,0,0,10.06,1.161C978.64,266.1,978.8,266.679,978.966,267.393Z" fill="#c9a875"/>
    <g id="Grupo_5045" data-name="Grupo 5045">
      <path id="Trazado_11327" data-name="Trazado 11327" d="M960.8,292.614a8.8,8.8,0,0,0,6.613-3.009,8.759,8.759,0,0,0,13.139.086c.052-.835.078-1.7.078-2.615a.845.845,0,0,0-1.006,1.049,7.043,7.043,0,0,1-11.2,0,.834.834,0,0,0-.344-.928.843.843,0,0,0-.663-.121.853.853,0,0,0-.67.121.844.844,0,0,0-.344.928,7.059,7.059,0,0,1-11.661-.662.86.86,0,1,0-1.47.895A8.734,8.734,0,0,0,960.8,292.614Z" fill="#c9a875"/>
      <path id="Trazado_11328" data-name="Trazado 11328" d="M977.874,301.119c-.387.877-.817,1.728-1.281,2.554h-.009a8.541,8.541,0,0,1-2.725.438,8.794,8.794,0,0,1-6.613-3,8.768,8.768,0,0,1-13.217-.009,8.95,8.95,0,0,1-3.517,2.443c-.163-.568-.3-1.135-.43-1.677a7.086,7.086,0,0,0,2.941-2.245,1.158,1.158,0,0,1,1.685-.928.841.841,0,0,1,.336.928,7.043,7.043,0,0,0,11.2,0,.85.85,0,0,1,.352-.928.829.829,0,0,1,.662-.121.843.843,0,0,1,1.007,1.058,7.049,7.049,0,0,0,5.6,2.76A6.963,6.963,0,0,0,977.874,301.119Z" fill="#c9a875"/>
    </g>
    <path id="Trazado_11329" data-name="Trazado 11329" d="M980.188,275.562a.805.805,0,0,0-.387.138.859.859,0,0,0-.344.929,7.045,7.045,0,0,1-11.2,0,.842.842,0,0,0-.336-.929.854.854,0,0,0-.671-.121.829.829,0,0,0-.662.121.851.851,0,0,0-.352.929,7.045,7.045,0,0,1-11.2,0,.842.842,0,0,0-.336-.929,1.026,1.026,0,0,0-1.685.929,7.071,7.071,0,0,1-3.9,2.553v1.763a8.818,8.818,0,0,0,4.9-2.837,8.769,8.769,0,0,0,13.217.008,8.775,8.775,0,0,0,13.139.086C980.325,277.265,980.265,276.388,980.188,275.562Z" fill="#c9a875"/>
    <path id="Trazado_11330" data-name="Trazado 11330" d="M1043.313,192.048l-7.421,26.545a1.168,1.168,0,0,1-1.126.852H996.147a1.16,1.16,0,0,1-1.118-1.479l7.2-25.445c4.85,3.913,12.125,6.406,20.259,6.406C1030.939,198.927,1038.463,196.236,1043.313,192.048Z" fill="#f2e7d6"/>
    <path id="Trazado_11331" data-name="Trazado 11331" d="M997.549,113.555a21.694,21.694,0,0,1,3.1,7.05,19.941,19.941,0,0,1,.276,3.876c0,1.27-.037,2.534-.107,3.794-.133,2.521-.324,5.032-.543,7.541l-.042.47a1.845,1.845,0,0,0-.008.351,1.7,1.7,0,0,0,.172.628,1.679,1.679,0,0,0,.387.526l.687.631c.914.863,1.816,1.74,2.657,2.686a.433.433,0,0,1-.565.648c-1.053-.7-2.044-1.477-3.024-2.265-.245-.2-.482-.389-.731-.608a3.174,3.174,0,0,1-.743-.966,3.106,3.106,0,0,1-.313-1.18,3.414,3.414,0,0,1,.015-.589l.046-.468c.241-2.493.455-4.99.609-7.484.071-1.247.154-2.494.189-3.734a18.794,18.794,0,0,0-.149-3.634,21.791,21.791,0,0,0-2.631-6.806l-.012-.021a.43.43,0,0,1,.734-.446Z" fill="#a54625"/>
    <path id="Trazado_11332" data-name="Trazado 11332" d="M999.738,146.509a35.422,35.422,0,0,0,4.026-.241,32.8,32.8,0,0,0,3.972-.7,24.689,24.689,0,0,0,3.819-1.223,20.878,20.878,0,0,0,3.519-1.885l.02-.012a.429.429,0,0,1,.495.7,17.719,17.719,0,0,1-3.61,2.174,23.7,23.7,0,0,1-3.98,1.341,28.133,28.133,0,0,1-8.314.7.43.43,0,0,1,.032-.858Z" fill="#a54625"/>
    <path id="Trazado_11333" data-name="Trazado 11333" d="M1015.484,126.555a3.281,3.281,0,0,1-1.168-.206c-1.75-.663-2.843-2.948-2.783-5.822a1.267,1.267,0,0,1,1.317-1.262,1.291,1.291,0,0,1,1.263,1.316c-.041,1.9.623,3.169,1.116,3.355a1.639,1.639,0,0,0,1.175-.216,6.236,6.236,0,0,0,2.866-3.876,1.29,1.29,0,0,1,2.474.733,8.71,8.71,0,0,1-4.193,5.454A4.688,4.688,0,0,1,1015.484,126.555Z" fill="#511c0e"/>
    <path id="Trazado_11334" data-name="Trazado 11334" d="M991.4,126.555a3.281,3.281,0,0,1-1.168-.206c-1.751-.663-2.843-2.948-2.783-5.822a1.29,1.29,0,0,1,1.289-1.263h.027a1.29,1.29,0,0,1,1.263,1.316c-.039,1.9.623,3.169,1.117,3.355a1.639,1.639,0,0,0,1.175-.216,6.237,6.237,0,0,0,2.867-3.876,1.29,1.29,0,0,1,2.473.733,8.706,8.706,0,0,1-4.193,5.454A4.687,4.687,0,0,1,991.4,126.555Z" fill="#511c0e"/>
    <circle id="Elipse_691" data-name="Elipse 691" cx="5.85" cy="5.85" r="5.85" transform="translate(1021.391 125.265)" fill="#d8503d"/>
    <path id="Trazado_11335" data-name="Trazado 11335" d="M994.582,133.979a5.854,5.854,0,0,1-8.822,5.039c-.456-2.958-.809-6.08-1.058-9.27a5.783,5.783,0,0,1,4.033-1.625A5.854,5.854,0,0,1,994.582,133.979Z" fill="#d8503d"/>
    <path id="Trazado_11336" data-name="Trazado 11336" d="M1043.9,125.671a8.281,8.281,0,0,0-1.589,1.359,12.809,12.809,0,0,0-1.328,1.7,18.948,18.948,0,0,0-1.079,1.921c-.319.671-.6,1.364-.892,2.066l-.006.014a.432.432,0,0,1-.823-.244c.071-.389.166-.774.252-1.163.115-.381.236-.761.371-1.138a11.116,11.116,0,0,1,1.066-2.17,8.929,8.929,0,0,1,1.563-1.891,5.754,5.754,0,0,1,2.184-1.27.427.427,0,0,1,.347.77Z" fill="#a54625"/>
    <path id="Trazado_11337" data-name="Trazado 11337" d="M1008.459,110.884a3.114,3.114,0,0,1,2.11-1.739,14.22,14.22,0,0,1,2.5-.273,19.147,19.147,0,0,1,4.874.522,23.588,23.588,0,0,1,4.525,1.591c.72.33,1.4.741,2.095,1.106.664.427,1.319.862,1.956,1.316a.434.434,0,0,1-.37.771l-.026-.007c-.743-.211-1.467-.442-2.184-.677l-2.166-.611a35.1,35.1,0,0,0-4.319-.862,23.069,23.069,0,0,0-4.265-.212,18.827,18.827,0,0,0-2.057.247,4.325,4.325,0,0,1-2.276-.41l-.137-.061a.525.525,0,0,1-.265-.694Z" fill="#511c0e"/>
    <path id="Trazado_11338" data-name="Trazado 11338" d="M994.273,111.587l-.138.06a4.407,4.407,0,0,1-2.279.413,17.511,17.511,0,0,0-2.055-.25,23.788,23.788,0,0,0-4.265.207c-.378.043-.757.094-1.135.163.026-.662.06-1.316.1-1.969.017-.232.026-.464.052-.7.163-.043.327-.086.49-.12a19.582,19.582,0,0,1,4.876-.525,14.483,14.483,0,0,1,2.5.276,3.091,3.091,0,0,1,2.107,1.737l.008.008A.534.534,0,0,1,994.273,111.587Z" fill="#511c0e"/>
    <path id="Trazado_11339" data-name="Trazado 11339" d="M1082.233,294.42c-10.672,3.268-29.237,7.111-58.517,7.713a8.571,8.571,0,0,0-4.067,1.144A36.26,36.26,0,0,1,1004.4,308.2a29.765,29.765,0,0,1-5.6-.25,33.061,33.061,0,0,1-4.437-.9c-6.26-1.737-11.23-5.262-8.582-9.88.086-.155.19-.318.3-.481,4.377-6.45,21.094-9.3,25.05-9.9a14.009,14.009,0,0,0-5.2-4.919c-.077-.043-.146-.077-.223-.12,0,0,6.027-2.863,15.71,4.729l42.565-14.128-3.431-21.153,23.132-6.759,7.851,33.863A13.632,13.632,0,0,1,1082.233,294.42Z" fill="#f08f64"/>
    <path id="Trazado_11340" data-name="Trazado 11340" d="M1011.136,286.784c-3.956.593-20.673,3.448-25.05,9.9-.111.163-.215.326-.3.481a13.618,13.618,0,0,1-.352-3.1,13.889,13.889,0,0,1,20.277-12.322c.077.043.146.077.223.12A14.009,14.009,0,0,1,1011.136,286.784Z" fill="#cc4b2e"/>
    <path id="Trazado_11341" data-name="Trazado 11341" d="M993.274,284.45a5.385,5.385,0,0,0-1.42,1.477,7.1,7.1,0,0,0-.846,1.773,4.7,4.7,0,0,0-.163.963,4.985,4.985,0,0,1-.195.943,8.26,8.26,0,0,1-.353.962,4.68,4.68,0,0,1-.519,1.039l-.172.008a3.8,3.8,0,0,1-.656-2.267,4.665,4.665,0,0,1,.8-2.2,6.516,6.516,0,0,1,1.472-1.8,5.141,5.141,0,0,1,1.992-1.056Z" fill="#ea725e"/>
    <path id="Trazado_11342" data-name="Trazado 11342" d="M997.507,281.65s-1-16.324,4.992-14.222S997.507,281.65,997.507,281.65Z" fill="#5aa880"/>
    <path id="Trazado_11343" data-name="Trazado 11343" d="M997.26,281.65s.774-12.681-3.878-11.048S997.26,281.65,997.26,281.65Z" fill="#5aa880"/>
    <path id="Trazado_11344" data-name="Trazado 11344" d="M991.667,189.142l-39.719,57.975-.008.008-2.726,3.982H938.783l32.608-47.588.025-.034,5.444-7.946v-.008a17.222,17.222,0,0,1,1.96-1.281c.232-.138.482-.276.74-.413.008,0,.017-.009.026-.009.258-.137.533-.275.816-.413s.568-.275.86-.412.6-.276.912-.4q.774-.348,1.6-.67c.258-.1.516-.207.783-.31.18-.077.37-.146.567-.215.207-.086.422-.163.637-.241.412-.154.825-.309,1.255-.455C988.52,190.165,990.085,189.649,991.667,189.142Z" fill="#7f4e18"/>
    <path id="Trazado_11345" data-name="Trazado 11345" d="M1191.14,406.182c-1.454,4.334-6.51,18.952-18.153,31.9h-181.6c-3.861-6.355-2.657-11.248-2.657-11.248,1.178-4.79,5.495-7.6,7.671-8.814-10-19.262-6.9-40.459,5.6-50.984,8.883-7.49,20.044-7.481,24.344-7.24,2.356-19.193,13.844-35.334,30.26-41.775,13.242-5.2,25.419-2.4,30.26-.988,8.693-16.141,24.825-26.374,41.783-25.987,22.4.508,35.368,19.3,38.162,23.355a57.646,57.646,0,0,1,9.863,29.28,19.24,19.24,0,0,1,10.2,2.958C1201.562,356.359,1197.236,388.021,1191.14,406.182Z" fill="#5aa880"/>
    <path id="Trazado_11346" data-name="Trazado 11346" d="M1126.156,418.708a56.086,56.086,0,0,1-11.025,19.377h-110.3c-2.345-3.86-1.614-6.832-1.614-6.832.715-2.909,3.337-4.617,4.659-5.353-6.075-11.7-4.189-24.574,3.4-30.966,5.395-4.549,12.174-4.544,14.785-4.4,1.432-11.657,8.409-21.461,18.38-25.372a28.747,28.747,0,0,1,18.379-.6c5.28-9.8,15.078-16.019,25.377-15.784,13.606.309,21.482,11.726,23.179,14.186a35.011,35.011,0,0,1,5.991,17.783,11.684,11.684,0,0,1,6.194,1.8C1132.486,388.447,1129.859,407.677,1126.156,418.708Z" fill="#78ba93"/>
    <g id="Grupo_5046" data-name="Grupo 5046">
      <circle id="Elipse_692" data-name="Elipse 692" cx="10.104" cy="10.104" r="10.104" transform="translate(1120.271 305.422)" fill="#cc4b2e"/>
      <path id="Trazado_11347" data-name="Trazado 11347" d="M1127.673,308.35a5.374,5.374,0,0,0-1.548,1.341,7.115,7.115,0,0,0-1.005,1.688,4.74,4.74,0,0,0-.25.944,4.989,4.989,0,0,1-.28.922,8.2,8.2,0,0,1-.44.926,4.655,4.655,0,0,1-.611.987l-.172-.008a3.8,3.8,0,0,1-.447-2.318,4.69,4.69,0,0,1,1-2.12,6.539,6.539,0,0,1,1.63-1.658,5.131,5.131,0,0,1,2.08-.87Z" fill="#ea725e"/>
    </g>
    <g id="Grupo_5047" data-name="Grupo 5047">
      <path id="Trazado_11348" data-name="Trazado 11348" d="M1099.1,369.257a10.1,10.1,0,1,1-12.58-6.775A10.1,10.1,0,0,1,1099.1,369.257Z" fill="#e25740"/>
      <path id="Trazado_11349" data-name="Trazado 11349" d="M1084.775,366.062a5.381,5.381,0,0,0-1.1,1.73,7.1,7.1,0,0,0-.477,1.9,4.686,4.686,0,0,0,.032.976,5.1,5.1,0,0,1,0,.964,8.264,8.264,0,0,1-.155,1.013,4.661,4.661,0,0,1-.3,1.121l-.166.042a3.8,3.8,0,0,1-1.094-2.092,4.676,4.676,0,0,1,.346-2.317,6.533,6.533,0,0,1,1.085-2.057,5.136,5.136,0,0,1,1.743-1.431Z" fill="#ea725e"/>
    </g>
    <g id="Grupo_5048" data-name="Grupo 5048">
      <path id="Trazado_11350" data-name="Trazado 11350" d="M1071.757,335.26a10.1,10.1,0,1,1-12.58-6.775A10.1,10.1,0,0,1,1071.757,335.26Z" fill="#cc4b2e"/>
      <path id="Trazado_11351" data-name="Trazado 11351" d="M1057.431,332.065a5.38,5.38,0,0,0-1.1,1.729,7.108,7.108,0,0,0-.477,1.906,4.686,4.686,0,0,0,.032.976,4.921,4.921,0,0,1,0,.963,8.275,8.275,0,0,1-.155,1.014,4.7,4.7,0,0,1-.3,1.121l-.167.041a3.8,3.8,0,0,1-1.094-2.091,4.687,4.687,0,0,1,.346-2.317,6.535,6.535,0,0,1,1.085-2.057,5.146,5.146,0,0,1,1.743-1.431Z" fill="#ea725e"/>
    </g>
    <g id="Grupo_5049" data-name="Grupo 5049">
      <path id="Trazado_11352" data-name="Trazado 11352" d="M1141.743,363.135a10.1,10.1,0,1,1-12.58-6.776A10.1,10.1,0,0,1,1141.743,363.135Z" fill="#cc4b2e"/>
      <path id="Trazado_11353" data-name="Trazado 11353" d="M1127.417,359.939a5.375,5.375,0,0,0-1.1,1.73,7.107,7.107,0,0,0-.477,1.906,4.676,4.676,0,0,0,.032.975,5.009,5.009,0,0,1-.005.964,8.082,8.082,0,0,1-.155,1.013,4.645,4.645,0,0,1-.3,1.121l-.167.042a3.794,3.794,0,0,1-1.093-2.092,4.663,4.663,0,0,1,.346-2.316,6.537,6.537,0,0,1,1.085-2.058,5.13,5.13,0,0,1,1.742-1.43Z" fill="#ea725e"/>
    </g>
    <g id="Grupo_5050" data-name="Grupo 5050">
      <circle id="Elipse_693" data-name="Elipse 693" cx="10.104" cy="10.104" r="10.104" transform="matrix(0.832, -0.554, 0.554, 0.832, 1163.179, 367.998)" fill="#e25740"/>
      <path id="Trazado_11354" data-name="Trazado 11354" d="M1172.539,364.713a5.41,5.41,0,0,0-1.1,1.73,7.1,7.1,0,0,0-.477,1.906,4.679,4.679,0,0,0,.032.975,4.931,4.931,0,0,1,0,.964,8.263,8.263,0,0,1-.155,1.013,4.7,4.7,0,0,1-.3,1.121l-.167.042a3.8,3.8,0,0,1-1.094-2.092,4.689,4.689,0,0,1,.346-2.317A6.535,6.535,0,0,1,1170.7,366a5.132,5.132,0,0,1,1.743-1.43Z" fill="#ea725e"/>
    </g>
    <g id="Grupo_5051" data-name="Grupo 5051">
      <path id="Trazado_11355" data-name="Trazado 11355" d="M1151.85,325.154a10.1,10.1,0,1,1-12.58-6.776A10.1,10.1,0,0,1,1151.85,325.154Z" fill="#e25740"/>
      <path id="Trazado_11356" data-name="Trazado 11356" d="M1137.523,321.959a5.375,5.375,0,0,0-1.1,1.729,7.1,7.1,0,0,0-.477,1.906,4.686,4.686,0,0,0,.032.976,5.078,5.078,0,0,1,0,.963,8.2,8.2,0,0,1-.155,1.013,4.72,4.72,0,0,1-.3,1.122l-.167.041a3.8,3.8,0,0,1-1.094-2.091,4.675,4.675,0,0,1,.346-2.317,6.524,6.524,0,0,1,1.085-2.057,5.138,5.138,0,0,1,1.743-1.431Z" fill="#ea725e"/>
    </g>
    <g id="Grupo_5052" data-name="Grupo 5052">
      <path id="Trazado_11357" data-name="Trazado 11357" d="M1094.593,416.078a10.1,10.1,0,1,1-7.431-12.205A10.1,10.1,0,0,1,1094.593,416.078Z" fill="#e25740"/>
      <path id="Trazado_11358" data-name="Trazado 11358" d="M1083.846,406.08a5.373,5.373,0,0,0-1.822.937,7.1,7.1,0,0,0-1.375,1.4,4.777,4.777,0,0,0-.466.858,5,5,0,0,1-.49.829,8.222,8.222,0,0,1-.646.8,4.7,4.7,0,0,1-.827.815l-.165-.049a3.8,3.8,0,0,1,.113-2.357,4.686,4.686,0,0,1,1.469-1.825,6.547,6.547,0,0,1,1.977-1.226,5.127,5.127,0,0,1,2.226-.354Z" fill="#ea725e"/>
    </g>
    <g id="Grupo_5053" data-name="Grupo 5053">
      <path id="Trazado_11359" data-name="Trazado 11359" d="M1058.885,396.51a10.1,10.1,0,1,1-7.431-12.2A10.1,10.1,0,0,1,1058.885,396.51Z" fill="#cc4b2e"/>
      <path id="Trazado_11360" data-name="Trazado 11360" d="M1048.138,386.512a5.4,5.4,0,0,0-1.822.938,7.127,7.127,0,0,0-1.375,1.4,4.712,4.712,0,0,0-.465.858,5.032,5.032,0,0,1-.491.829,8.105,8.105,0,0,1-.646.8,4.7,4.7,0,0,1-.827.815l-.165-.048a3.8,3.8,0,0,1,.113-2.358,4.692,4.692,0,0,1,1.469-1.824,6.53,6.53,0,0,1,1.977-1.227,5.127,5.127,0,0,1,2.226-.354Z" fill="#ea725e"/>
    </g>
    <line id="Línea_17" data-name="Línea 17" y1="13.371" x2="7.665" transform="translate(851.692 398.976)" fill="none" stroke="#222221" stroke-miterlimit="10" stroke-width="0.86"/>
    <g id="Grupo_5055" data-name="Grupo 5055">
      <path id="Trazado_11361" data-name="Trazado 11361" d="M926.16,411.058c-2.67-6.6-5.386-6.887-6.542-13.105-.994-5.344.722-6.7-.468-12.049-.182-.82-2.706-11.666-8.411-12.259-4.342-.451-8.9,5.205-10.749,9.512-2.217,5.167-.132,7.463-2.336,15.641-1.028,3.812-1.574,3.658-3.038,8.032-1.714,5.123-4,11.95-2.8,18.812,1.177,6.747,5.425,11.846,9.089,15.151a8.264,8.264,0,0,0,5.3,2.053l8.9.252a8.258,8.258,0,0,0,5.751-2.019,24.175,24.175,0,0,0,5.072-6.348C931.559,424.408,927.011,413.161,926.16,411.058Z" fill="#5aa880"/>
      <g id="Grupo_5054" data-name="Grupo 5054">
        <path id="Trazado_11362" data-name="Trazado 11362" d="M910,443.613a.324.324,0,0,1-.053,0,.377.377,0,0,1-.322-.427c.878-6.261.688-13.261,0-24.789-.671-11.177-.008-39.933,0-40.222a.379.379,0,1,1,.757.018c-.007.288-.669,29.013,0,40.158.694,11.579.885,18.615,0,24.94A.38.38,0,0,1,910,443.613Z" fill="#84bfa1"/>
        <path id="Trazado_11363" data-name="Trazado 11363" d="M910.552,436.606a.379.379,0,0,1-.3-.151l-9.851-13.1a.379.379,0,1,1,.6-.456l9.851,13.1a.377.377,0,0,1-.075.53A.373.373,0,0,1,910.552,436.606Z" fill="#84bfa1"/>
        <path id="Trazado_11364" data-name="Trazado 11364" d="M909.71,407.753a.381.381,0,0,1-.291-.136l-8.3-9.935a.379.379,0,0,1,.582-.485l8.3,9.935a.378.378,0,0,1-.291.621Z" fill="#84bfa1"/>
        <path id="Trazado_11365" data-name="Trazado 11365" d="M909.777,413.691a.378.378,0,0,1-.29-.622l8.3-9.935a.379.379,0,0,1,.582.485l-8.3,9.936A.381.381,0,0,1,909.777,413.691Z" fill="#84bfa1"/>
        <path id="Trazado_11366" data-name="Trazado 11366" d="M909.777,397.061a.378.378,0,0,1-.29-.621l6.261-9.778a.379.379,0,0,1,.582.485l-6.262,9.778A.378.378,0,0,1,909.777,397.061Z" fill="#84bfa1"/>
      </g>
    </g>
    <g id="Grupo_5056" data-name="Grupo 5056">
      <path id="Trazado_11367" data-name="Trazado 11367" d="M949.047,422.1c5.621,10.393.381,25.155-10.023,28.375-9.227,2.857-20.252-4.936-23.879-14.032-2.321-5.822-2.161-13.543,1.1-19.139,1.728-2.966,3.2-3.407,5.267-7.64a42.45,42.45,0,0,0,3.359-11.036c1.074-5.834.494-7.89,2.521-10.009,0,0,2.922-2.932,7.516.839s3.476,12.453,4.048,15C940.944,413.328,945.722,415.95,949.047,422.1Z" fill="#84bfa1"/>
      <path id="Trazado_11368" data-name="Trazado 11368" d="M927.393,410.927a47.608,47.608,0,0,1,5.015,10.35,167.887,167.887,0,0,0-.81-21.316.333.333,0,0,1,.661-.084c.01.082.441,3.595.685,9.588a76.217,76.217,0,0,0,4.042-7.373.333.333,0,0,1,.437-.173h0a.332.332,0,0,1,.172.438,84.943,84.943,0,0,1-4.607,8.307c.12,3.5.167,7.755.042,12.593a.329.329,0,0,1,0,.113c-.07,2.632-.192,5.436-.381,8.389,3.4-3.659,7.4-10.8,7.437-10.874a.333.333,0,0,1,.582.324c-.184.331-4.513,8.072-8.086,11.572-.3,4.4-.758,9.119-1.421,14.07a.334.334,0,0,1-.375.286.322.322,0,0,1-.087-.025.331.331,0,0,1-.2-.349,221.173,221.173,0,0,0,1.865-23.452,47.665,47.665,0,0,0-5.526-12.017.333.333,0,0,1,.555-.368Z" fill="#45836a"/>
    </g>
    <path id="Trazado_11369" data-name="Trazado 11369" d="M882.978,210.428a10.914,10.914,0,0,1-2.758-7.129,30.809,30.809,0,0,0-2.78-11.327c-1.107-2.456-6.265-13.9-16.548-14.327-7.52-.313-12.868,5.471-13.924,6.659-1.683-.644-8.326-2.96-14.933.2-8.789,4.206-10.179,14.6-10.493,16.951-.01.069-.019.141-.029.216a11.439,11.439,0,0,1-4.283,7.668,8.944,8.944,0,0,0-3.558,7.149h0a8.979,8.979,0,0,0,8.979,8.98h53.708a8.98,8.98,0,0,0,8.98-8.98h0A8.931,8.931,0,0,0,882.978,210.428Z" fill="#e1f1e7"/>
    <path id="Trazado_11370" data-name="Trazado 11370" d="M1183.729,151.248c-3.57-3.641-8.591-3.785-10.062-3.774-.141-.654-1.57-6.784-7.547-9.433a13.509,13.509,0,0,0-10.063-.21c-6.979-4.414-15.709-4.09-21.593.629-6.7,5.37-6.534,13.888-6.5,14.884-1.471.275-6.464,1.387-9.014,5.661a11.518,11.518,0,0,0-1.5,6.441,5.281,5.281,0,0,0,2.382,10h61.547a5.283,5.283,0,0,0,4.986-3.546h0C1191.119,164.867,1188.268,155.876,1183.729,151.248Z" fill="#e1f1e7"/>
    <path id="Trazado_11371" data-name="Trazado 11371" d="M1022.452,166.535c-1.9,2.984-6.449,6.32-9.691,8.461-.095-3.379-.49-7.034-.748-9.089a1.846,1.846,0,0,0-1.815-1.634,41.389,41.389,0,0,1-4.463-.284c.619,0,11.377-.12,18.48-3.147C1024.215,160.842,1025.565,161.659,1022.452,166.535Z" fill="#d96a3c"/>
    <path id="Trazado_11372" data-name="Trazado 11372" d="M1055.968,252.83a3.549,3.549,0,0,1-3.412-2.619l-4.025-14.873a.429.429,0,1,1,.829-.225l4.026,14.873a2.684,2.684,0,0,0,3.406,1.854l7.058-2.259a.43.43,0,1,1,.262.819l-7.058,2.259A3.564,3.564,0,0,1,1055.968,252.83Z" fill="#e5d4bd"/>
    <g id="Grupo_5057" data-name="Grupo 5057">
      <path id="Trazado_11373" data-name="Trazado 11373" d="M992.475,368.509l1.553.142a1.945,1.945,0,0,1,1.884,2.007l-4.042,40.3a1.7,1.7,0,0,1-1.927,1.4h0a1.7,1.7,0,0,1-1.646-1.675l1.958-40.484A1.937,1.937,0,0,1,992.475,368.509Z" fill="#351008"/>
      <path id="Trazado_11374" data-name="Trazado 11374" d="M998.82,442.277l-24.363-2.22-1.4-26.553a7.086,7.086,0,0,1,7.719-7.431l17.974,1.637a7.086,7.086,0,0,1,6.249,8.7Z" fill="#97a29c"/>
      <path id="Trazado_11375" data-name="Trazado 11375" d="M976.377,440.232c-.531-6.687-.967-13.378-1.389-20.071-.049-.843-.121-1.659-.15-2.523a6.2,6.2,0,0,1,.5-2.6,6.383,6.383,0,0,1,3.815-3.521,6.487,6.487,0,0,1,2.64-.306l2.5.218,5.01.437,5.007.475,2.5.238a6.476,6.476,0,0,1,2.541.778,6.376,6.376,0,0,1,3.116,4.153,6.238,6.238,0,0,1,.024,2.648c-.186.845-.4,1.634-.6,2.455l-2.453,9.755L996.9,442.1l2.132-9.832,2.22-9.811c.178-.813.385-1.646.54-2.442a5.576,5.576,0,0,0-2.81-5.974,5.668,5.668,0,0,0-2.237-.665l-2.505-.219-5.01-.437-5.007-.476-2.5-.238a5.688,5.688,0,0,0-2.321.25,5.581,5.581,0,0,0-3.844,5.369c.008.811.062,1.668.09,2.5C975.93,426.826,976.2,433.527,976.377,440.232Z" fill="#c5d3cb"/>
    </g>
    <g id="Grupo_5059" data-name="Grupo 5059">
      <path id="Trazado_11376" data-name="Trazado 11376" d="M865.882,402.726c-4.2-5.4-6.787-4.943-9.49-10.383-2.324-4.674-1.1-6.374-3.6-11-.384-.71-5.569-10.064-10.995-9.11-4.129.725-6.851,7.149-7.425,11.613-.688,5.356,1.842,6.929,1.957,15.062.054,3.791-.49,3.793-.692,8.218-.236,5.183-.551,12.09,2.36,18.113,2.861,5.922,8.126,9.514,12.381,11.6a7.933,7.933,0,0,0,5.434.5l8.29-2.11a7.928,7.928,0,0,0,4.78-3.377,23.251,23.251,0,0,0,3.015-7.2C874.381,413.637,867.222,404.446,865.882,402.726Z" fill="#45836a"/>
      <g id="Grupo_5058" data-name="Grupo 5058">
        <path id="Trazado_11377" data-name="Trazado 11377" d="M859.518,437.049a.4.4,0,0,1-.05.01.363.363,0,0,1-.41-.31c-.836-6.014-2.853-12.429-6.525-22.895-3.56-10.147-10.513-36.882-10.583-37.151a.364.364,0,0,1,.7-.183c.07.269,7.015,26.974,10.565,37.092,3.688,10.513,5.715,16.962,6.559,23.037A.364.364,0,0,1,859.518,437.049Z" fill="#84bfa1"/>
        <path id="Trazado_11378" data-name="Trazado 11378" d="M858.188,430.43a.365.365,0,0,1-.32-.06l-12.546-9.509a.364.364,0,0,1,.439-.581l12.546,9.51a.364.364,0,0,1-.119.64Z" fill="#84bfa1"/>
        <path id="Trazado_11379" data-name="Trazado 11379" d="M849.819,404a.364.364,0,0,1-.3-.049l-10.281-6.992a.364.364,0,1,1,.41-.6l10.28,6.993a.363.363,0,0,1-.105.65Z" fill="#84bfa1"/>
        <path id="Trazado_11380" data-name="Trazado 11380" d="M851.443,409.469a.364.364,0,0,1-.432-.5l5.053-11.36a.364.364,0,1,1,.665.3l-5.053,11.361A.367.367,0,0,1,851.443,409.469Z" fill="#84bfa1"/>
        <path id="Trazado_11381" data-name="Trazado 11381" d="M847.068,394.109a.359.359,0,0,1-.247-.017.364.364,0,0,1-.185-.48l3.211-10.679a.364.364,0,1,1,.665.295L847.3,393.907A.364.364,0,0,1,847.068,394.109Z" fill="#84bfa1"/>
      </g>
    </g>
    <g id="Grupo_5060" data-name="Grupo 5060">
      <path id="Trazado_11382" data-name="Trazado 11382" d="M858.081,405.828c-8.656,10.75-5.762,28.816,5.508,34.718,9.994,5.234,24.309-1.383,30.4-11.065,3.9-6.2,5.349-15.1,2.789-22.218-1.357-3.773-2.958-4.592-4.433-9.891a49.607,49.607,0,0,1-1.522-13.388c0-6.93,1.1-9.169-.778-12.032,0,0-2.735-3.987-8.812-.627s-6.628,13.57-7.825,16.378C869.247,397.468,863.2,399.469,858.081,405.828Z" fill="#84bfa1"/>
      <path id="Trazado_11383" data-name="Trazado 11383" d="M885.321,397.578a55.631,55.631,0,0,0-7.952,10.829,195.92,195.92,0,0,1,5.443-24.316.389.389,0,0,0-.741-.236c-.03.093-1.269,4.037-2.817,10.869a88.8,88.8,0,0,1-3.083-9.325.388.388,0,0,0-.465-.291h0a.389.389,0,0,0-.291.467,99.155,99.155,0,0,0,3.534,10.518c-.879,4-1.834,8.873-2.714,14.457a.372.372,0,0,0-.02.131c-.478,3.038-.931,6.285-1.338,9.717-3.136-4.923-6.209-13.969-6.242-14.065a.389.389,0,1,0-.737.249c.141.418,3.475,10.228,6.839,15-.584,5.123-1.059,10.637-1.345,16.464a.388.388,0,0,0,.369.407.374.374,0,0,0,.106-.009.388.388,0,0,0,.3-.36,258.178,258.178,0,0,1,2.822-27.334,55.665,55.665,0,0,1,8.892-12.635.389.389,0,0,0-.56-.541Z" fill="#45836a"/>
    </g>
    <g id="Grupo_5062" data-name="Grupo 5062">
      <path id="Trazado_11384" data-name="Trazado 11384" d="M1139.5,402.726c-4.2-5.4-6.786-4.943-9.49-10.383-2.324-4.674-1.095-6.374-3.6-11-.384-.71-5.569-10.064-10.994-9.11-4.13.725-6.852,7.149-7.426,11.613-.688,5.356,1.842,6.929,1.958,15.062.053,3.791-.491,3.793-.693,8.218-.236,5.183-.551,12.09,2.36,18.113,2.861,5.922,8.127,9.514,12.381,11.6a7.933,7.933,0,0,0,5.434.5l8.29-2.11a7.928,7.928,0,0,0,4.78-3.377,23.253,23.253,0,0,0,3.015-7.2C1147.995,413.637,1140.836,404.446,1139.5,402.726Z" fill="#45836a"/>
      <g id="Grupo_5061" data-name="Grupo 5061">
        <path id="Trazado_11385" data-name="Trazado 11385" d="M1133.132,437.049a.4.4,0,0,1-.05.01.363.363,0,0,1-.41-.31c-.836-6.014-2.853-12.429-6.525-22.895-3.56-10.147-10.513-36.882-10.583-37.151a.364.364,0,0,1,.7-.183c.07.269,7.015,26.974,10.565,37.092,3.688,10.513,5.715,16.962,6.559,23.037A.364.364,0,0,1,1133.132,437.049Z" fill="#84bfa1"/>
        <path id="Trazado_11386" data-name="Trazado 11386" d="M1131.8,430.43a.362.362,0,0,1-.319-.06l-12.547-9.509a.364.364,0,0,1,.439-.581l12.547,9.51a.365.365,0,0,1,.07.51A.358.358,0,0,1,1131.8,430.43Z" fill="#84bfa1"/>
        <path id="Trazado_11387" data-name="Trazado 11387" d="M1123.433,404a.364.364,0,0,1-.3-.049l-10.28-6.992a.364.364,0,1,1,.409-.6l10.28,6.993a.363.363,0,0,1-.1.65Z" fill="#84bfa1"/>
        <path id="Trazado_11388" data-name="Trazado 11388" d="M1125.057,409.469a.364.364,0,0,1-.431-.5l5.052-11.36a.364.364,0,1,1,.665.3l-5.053,11.361A.367.367,0,0,1,1125.057,409.469Z" fill="#84bfa1"/>
        <path id="Trazado_11389" data-name="Trazado 11389" d="M1120.682,394.109a.359.359,0,0,1-.247-.017.364.364,0,0,1-.185-.48l3.211-10.679a.364.364,0,1,1,.665.295l-3.211,10.679A.364.364,0,0,1,1120.682,394.109Z" fill="#84bfa1"/>
      </g>
    </g>
    <g id="Grupo_5063" data-name="Grupo 5063">
      <path id="Trazado_11390" data-name="Trazado 11390" d="M1131.695,405.828c-8.656,10.75-5.762,28.816,5.508,34.718,9.995,5.234,24.309-1.383,30.4-11.065,3.9-6.2,5.35-15.1,2.789-22.218-1.357-3.773-2.958-4.592-4.432-9.891a49.573,49.573,0,0,1-1.523-13.388c0-6.93,1.1-9.169-.778-12.032,0,0-2.735-3.987-8.811-.627s-6.629,13.57-7.826,16.378C1142.861,397.468,1136.816,399.469,1131.695,405.828Z" fill="#84bfa1"/>
      <path id="Trazado_11391" data-name="Trazado 11391" d="M1158.935,397.578a55.627,55.627,0,0,0-7.952,10.829,195.907,195.907,0,0,1,5.443-24.316.389.389,0,0,0-.741-.236c-.03.093-1.269,4.037-2.817,10.869a89.029,89.029,0,0,1-3.083-9.325.388.388,0,0,0-.465-.291h0a.389.389,0,0,0-.291.467,99.166,99.166,0,0,0,3.534,10.518c-.879,4-1.834,8.873-2.714,14.457a.373.373,0,0,0-.02.131c-.478,3.038-.931,6.285-1.338,9.717-3.136-4.923-6.209-13.969-6.242-14.065a.389.389,0,0,0-.737.249c.141.418,3.475,10.228,6.839,15-.584,5.123-1.059,10.637-1.345,16.464a.388.388,0,0,0,.369.407.373.373,0,0,0,.106-.009.389.389,0,0,0,.3-.36,257.956,257.956,0,0,1,2.821-27.334,55.665,55.665,0,0,1,8.892-12.635.389.389,0,0,0-.56-.541Z" fill="#45836a"/>
    </g>
    <path id="Trazado_11392" data-name="Trazado 11392" d="M1175.489,437.087l-3.878,36.262a2.227,2.227,0,0,1-2.218,1.987h-338.5a2.228,2.228,0,0,1-2.219-1.987l-3.878-36.262a2.227,2.227,0,0,1,2.218-2.459h346.259A2.227,2.227,0,0,1,1175.489,437.087Z" fill="#ad712f"/>
    <path id="Trazado_11393" data-name="Trazado 11393" d="M1175.489,437.087l-3.878,36.262a2.227,2.227,0,0,1-2.218,1.987H872.957a2.24,2.24,0,0,1-2.218-1.987l-3.879-36.262a2.228,2.228,0,0,1,2.219-2.459h304.192A2.227,2.227,0,0,1,1175.489,437.087Z" fill="#895b20"/>
    <line id="Línea_18" data-name="Línea 18" x2="36.996" transform="translate(828.868 448.494)" fill="none" stroke="#351008" stroke-linecap="round" stroke-linejoin="round" stroke-width="0.86"/>
    <line id="Línea_19" data-name="Línea 19" x2="298.901" transform="translate(870.324 448.494)" fill="none" stroke="#351008" stroke-linecap="round" stroke-linejoin="round" stroke-width="0.86"/>
    <line id="Línea_20" data-name="Línea 20" x2="36.996" transform="translate(828.868 460.624)" fill="none" stroke="#351008" stroke-linecap="round" stroke-linejoin="round" stroke-width="0.86"/>
    <line id="Línea_21" data-name="Línea 21" x2="297.181" transform="translate(872.044 460.624)" fill="none" stroke="#351008" stroke-linecap="round" stroke-linejoin="round" stroke-width="0.86"/>
    <path id="Trazado_11394" data-name="Trazado 11394" d="M875.547,441.8c0,1-.553,1.813-1.235,1.813s-1.236-.812-1.236-1.813.553-1.814,1.236-1.814S875.547,440.8,875.547,441.8Z" fill="none" stroke="#351008" stroke-linecap="round" stroke-linejoin="round" stroke-width="0.86"/>
    <path id="Trazado_11395" data-name="Trazado 11395" d="M876.782,454.982c0,1-.553,1.813-1.235,1.813s-1.235-.812-1.235-1.813.553-1.814,1.235-1.814S876.782,453.98,876.782,454.982Z" fill="none" stroke="#351008" stroke-linecap="round" stroke-linejoin="round" stroke-width="0.86"/>
    <path id="Trazado_11396" data-name="Trazado 11396" d="M877.385,466.267c0,1-.553,1.814-1.235,1.814s-1.236-.812-1.236-1.814.553-1.813,1.236-1.813S877.385,465.266,877.385,466.267Z" fill="none" stroke="#351008" stroke-linecap="round" stroke-linejoin="round" stroke-width="0.86"/>
    <path id="Trazado_11397" data-name="Trazado 11397" d="M831.339,441.8c0,1-.553,1.813-1.236,1.813s-1.235-.812-1.235-1.813.553-1.814,1.235-1.814S831.339,440.8,831.339,441.8Z" fill="none" stroke="#351008" stroke-linecap="round" stroke-linejoin="round" stroke-width="0.86"/>
    <path id="Trazado_11398" data-name="Trazado 11398" d="M832.574,454.982c0,1-.553,1.813-1.235,1.813s-1.236-.812-1.236-1.813.554-1.814,1.236-1.814S832.574,453.98,832.574,454.982Z" fill="none" stroke="#351008" stroke-linecap="round" stroke-linejoin="round" stroke-width="0.86"/>
    <path id="Trazado_11399" data-name="Trazado 11399" d="M833.177,466.267c0,1-.553,1.814-1.236,1.814s-1.235-.812-1.235-1.814.553-1.813,1.235-1.813S833.177,465.266,833.177,466.267Z" fill="none" stroke="#351008" stroke-linecap="round" stroke-linejoin="round" stroke-width="0.86"/>
    <path id="Trazado_11400" data-name="Trazado 11400" d="M861.619,441.8c0,1,.554,1.813,1.236,1.813s1.235-.812,1.235-1.813-.553-1.814-1.235-1.814S861.619,440.8,861.619,441.8Z" fill="none" stroke="#351008" stroke-linecap="round" stroke-linejoin="round" stroke-width="0.86"/>
    <path id="Trazado_11401" data-name="Trazado 11401" d="M862.338,454.982c0,1,.554,1.813,1.236,1.813s1.235-.812,1.235-1.813-.553-1.814-1.235-1.814S862.338,453.98,862.338,454.982Z" fill="none" stroke="#351008" stroke-linecap="round" stroke-linejoin="round" stroke-width="0.86"/>
    <path id="Trazado_11402" data-name="Trazado 11402" d="M863.315,466.267c0,1,.553,1.814,1.235,1.814s1.236-.812,1.236-1.814-.554-1.813-1.236-1.813S863.315,465.266,863.315,466.267Z" fill="none" stroke="#351008" stroke-linecap="round" stroke-linejoin="round" stroke-width="0.86"/>
    <path id="Trazado_11403" data-name="Trazado 11403" d="M1168.564,441.8c0,1-.553,1.813-1.236,1.813s-1.235-.812-1.235-1.813.553-1.814,1.235-1.814S1168.564,440.8,1168.564,441.8Z" fill="none" stroke="#351008" stroke-linecap="round" stroke-linejoin="round" stroke-width="0.86"/>
    <path id="Trazado_11404" data-name="Trazado 11404" d="M1166.985,454.982c0,1-.553,1.813-1.236,1.813s-1.235-.812-1.235-1.813.553-1.814,1.235-1.814S1166.985,453.98,1166.985,454.982Z" fill="none" stroke="#351008" stroke-linecap="round" stroke-linejoin="round" stroke-width="0.86"/>
    <path id="Trazado_11405" data-name="Trazado 11405" d="M1166.008,466.267c0,1-.553,1.814-1.235,1.814s-1.235-.812-1.235-1.814.553-1.813,1.235-1.813S1166.008,465.266,1166.008,466.267Z" fill="none" stroke="#351008" stroke-linecap="round" stroke-linejoin="round" stroke-width="0.86"/>
  </g>
</svg>
